# xmcd
#
# Track frame offsets:
#	150
#	39919
#	61599
#	97734
#	138490
#	173100
#	217589
#	243834
#	251655
#	288975
#
# Disc length: 4305 seconds
#
# Revision: 1
# Processed by: cddbd v1.5.2PL0 Copyright (c) Steve Scherf et al.
# Submitted via: audiograbber 1.83.01
#
DISCID=7810cf0a
DTITLE=Grateful Dead - 80-10-04 Warfield Theatre, San Francisco CA
DYEAR=1900
DGENRE=
TTITLE0=High Time
TTITLE1=Passenger
TTITLE2=Althea
TTITLE3=Little Red Rooster
TTITLE4=Ramble On Rose
TTITLE5=Let It Grow
TTITLE6=Deal
TTITLE7=Tuning
TTITLE8=Feel Like A Stranger
TTITLE9=Franklin's Tower
EXTD=
EXTT0=
EXTT1=
EXTT2=
EXTT3=
EXTT4=
EXTT5=
EXTT6=
EXTT7=
EXTT8=
EXTT9=
PLAYORDER=
